<?xml version="1.0" encoding="UTF-8" standalone="no"?>
<!DOCTYPE svg PUBLIC "-//W3C//DTD SVG 1.1//EN" "http://www.w3.org/Graphics/SVG/1.1/DTD/svg11.dtd">
<svg width="100%" height="100%" viewBox="0 0 32 32" version="1.1" xmlns="http://www.w3.org/2000/svg" xmlns:xlink="http://www.w3.org/1999/xlink" xml:space="preserve" xmlns:serif="http://www.serif.com/" style="fill-rule:evenodd;clip-rule:evenodd;stroke-linejoin:round;stroke-miterlimit:2;">
    <circle cx="16" cy="16" r="16" style="fill:rgb(36,30,32);"/>
    <g transform="matrix(0.0546875,0,0,0.0546875,5.5,2)">
        <path d="M153.6,29.9L169.6,8.6C173.6,3.2 180,0 186.7,0C198.4,0 208,9.6 208,21.3L208,43.5C208,56.6 213.4,69.2 222.9,78.2L307.6,159C356.4,205.6 384,270.2 384,337.7C384,434 306,512 209.7,512L192,512C86,512 0,426 0,320L0,316.2C0,267.4 19.4,220.6 53.9,186.1L57.4,182.6C61.6,178.4 67.4,176 73.4,176C85.9,176 96,186.1 96,198.6L96,288C96,323.3 124.7,352 160,352C195.3,352 224,323.3 224,288L224,284.1C224,266.1 216.8,248.8 204.1,236.1L165.5,197.5C141.5,173.5 128,140.8 128,106.8C128,79.1 137,52 153.6,29.9Z" style="fill:rgb(243,211,221);fill-rule:nonzero;"/>
    </g>
</svg>
